<svg width="483" height="223" viewBox="0 0 483 223" fill="none" xmlns="http://www.w3.org/2000/svg">
<path d="M1.408 101.12C4.224 101.12 6.528 100.907 8.32 100.48C10.1973 100.053 11.7333 99.2853 12.928 98.176C14.208 96.9813 15.2747 95.4453 16.128 93.568C16.9813 91.6053 17.792 89.088 18.56 86.016L33.408 29.568C34.0053 27.3493 34.432 25.4293 34.688 23.808C35.0293 22.1867 35.2 20.7787 35.2 19.584C35.2 16.768 34.2187 14.9333 32.256 14.08C30.2933 13.2267 27.008 12.8 22.4 12.8L23.808 7.68H93.696V33.536H88.832C87.7227 29.44 86.4853 26.112 85.12 23.552C83.7547 20.9067 82.176 18.8587 80.384 17.408C78.6773 15.872 76.7147 14.8053 74.496 14.208C72.3627 13.6107 69.9733 13.312 67.328 13.312H50.688L40.704 51.328H49.408C51.712 51.328 53.6747 51.1147 55.296 50.688C56.9173 50.2613 58.368 49.536 59.648 48.512C61.0133 47.4027 62.2507 45.9093 63.36 44.032C64.5547 42.1547 65.8347 39.7227 67.2 36.736H71.936L62.976 77.184H57.856C58.112 74.112 58.24 71.4667 58.24 69.248C58.24 64.9813 57.6 61.8667 56.32 59.904C55.04 57.9413 52.6933 56.96 49.28 56.96H39.04L31.744 84.48C30.976 87.296 30.592 89.6853 30.592 91.648C30.592 94.72 31.744 97.024 34.048 98.56C36.352 100.011 40.4053 100.736 46.208 100.736L44.8 106.24H0L1.408 101.12Z" fill="#84A3C4"/>
<path d="M121.204 43.776C117.961 43.776 114.591 45.2693 111.092 48.256C107.679 51.2427 104.564 54.9973 101.748 59.52C98.932 63.9573 96.628 68.7787 94.836 73.984C93.044 79.104 92.148 83.8827 92.148 88.32C92.148 91.392 92.788 93.8667 94.068 95.744C95.348 97.536 97.0973 98.432 99.316 98.432C101.279 98.432 103.327 97.664 105.46 96.128C107.593 94.5067 109.641 92.416 111.604 89.856C113.652 87.2107 115.572 84.224 117.364 80.896C119.156 77.568 120.735 74.1547 122.1 70.656C123.465 67.072 124.532 63.5733 125.3 60.16C126.068 56.7467 126.452 53.6747 126.452 50.944C126.452 48.7253 125.983 46.976 125.044 45.696C124.105 44.416 122.825 43.776 121.204 43.776ZM134.388 38.4H145.012L137.716 57.984C136.521 61.2267 135.327 64.6827 134.132 68.352C133.023 72.0213 131.999 75.5627 131.06 78.976C130.207 82.3893 129.524 85.504 129.012 88.32C128.5 91.136 128.244 93.2267 128.244 94.592C128.244 97.0667 129.055 98.304 130.676 98.304C131.871 98.304 133.577 97.0667 135.796 94.592C138.1 92.1173 140.66 88.9173 143.476 84.992L146.804 87.68C143.22 93.9947 139.337 98.9013 135.156 102.4C131.06 105.813 127.092 107.52 123.252 107.52C121.289 107.52 119.753 106.795 118.644 105.344C117.62 103.808 117.108 101.333 117.108 97.92C117.108 97.152 117.108 96.256 117.108 95.232C117.193 94.208 117.321 92.8427 117.492 91.136L116.98 91.008C115.7 93.3973 114.164 95.616 112.372 97.664C110.665 99.6267 108.788 101.376 106.74 102.912C104.692 104.363 102.559 105.472 100.34 106.24C98.1213 107.093 95.9453 107.52 93.812 107.52C89.46 107.52 86.0467 105.899 83.572 102.656C81.1827 99.328 79.988 94.7627 79.988 88.96C79.988 83.072 81.2253 77.056 83.7 70.912C86.1747 64.768 89.3747 59.2213 93.3 54.272C97.2253 49.2373 101.577 45.1413 106.356 41.984C111.135 38.7413 115.828 37.12 120.436 37.12C123.252 37.12 125.556 37.8027 127.348 39.168C129.14 40.448 130.591 42.5813 131.7 45.568L134.388 38.4Z" fill="#84A3C4"/>
<path d="M156.444 56.704C156.444 53.888 156.956 51.2853 157.98 48.896C159.089 46.5067 160.583 44.4587 162.46 42.752C164.337 40.96 166.556 39.5947 169.116 38.656C171.761 37.632 174.62 37.12 177.692 37.12C181.788 37.12 185.201 38.144 187.932 40.192C190.663 42.24 192.028 44.8853 192.028 48.128C192.028 49.92 191.516 51.328 190.492 52.352C189.553 53.376 188.231 53.888 186.524 53.888C184.561 53.888 183.153 53.3333 182.3 52.224C181.447 51.0293 180.721 49.7493 180.124 48.384C179.527 46.9333 178.887 45.6107 178.204 44.416C177.521 43.2213 176.369 42.624 174.748 42.624C172.871 42.624 171.292 43.4347 170.012 45.056C168.732 46.6773 168.092 48.6827 168.092 51.072C168.092 53.888 168.903 56.5333 170.524 59.008C172.231 61.3973 174.108 63.9147 176.156 66.56C178.204 69.2053 180.039 72.1067 181.66 75.264C183.367 78.4213 184.22 82.1333 184.22 86.4C184.22 89.3013 183.58 92.032 182.3 94.592C181.105 97.152 179.441 99.4133 177.308 101.376C175.26 103.253 172.871 104.747 170.14 105.856C167.409 106.965 164.593 107.52 161.692 107.52C156.572 107.52 152.476 106.411 149.404 104.192C146.417 101.973 144.924 99.072 144.924 95.488C144.924 93.0133 145.479 91.0933 146.588 89.728C147.783 88.2773 149.361 87.552 151.324 87.552C154.993 87.552 157.084 90.0693 157.596 95.104C157.852 97.8347 158.279 99.6693 158.876 100.608C159.559 101.461 160.881 101.888 162.844 101.888C165.916 101.888 168.348 100.992 170.14 99.2C171.932 97.3227 172.828 94.7627 172.828 91.52C172.828 88.1067 171.975 85.0773 170.268 82.432C168.561 79.7867 166.684 77.2267 164.636 74.752C162.588 72.192 160.711 69.504 159.004 66.688C157.297 63.872 156.444 60.544 156.444 56.704Z" fill="#84A3C4"/>
<path d="M235.786 66.432C237.237 62.08 238.261 58.624 238.858 56.064C239.541 53.504 239.882 51.2427 239.882 49.28C239.882 47.3173 239.541 45.952 238.858 45.184C238.261 44.3307 237.194 43.904 235.658 43.904C233.013 43.904 230.41 44.928 227.85 46.976C225.29 49.024 222.687 52.224 220.042 56.576C217.482 60.928 214.794 66.4747 211.978 73.216C209.162 79.9573 206.175 88.0213 203.018 97.408L200.074 106.24H189.322L214.666 19.456C215.263 17.3227 215.733 15.4453 216.074 13.824C216.415 12.2027 216.586 10.9227 216.586 9.984C216.586 8.27734 215.775 7.08267 214.154 6.4C212.533 5.71733 209.546 5.29067 205.194 5.12L206.09 0H232.202L217.61 49.408L217.994 49.664C220.725 45.6533 223.882 42.5813 227.466 40.448C231.05 38.2293 234.805 37.12 238.73 37.12C242.826 37.12 245.941 38.3147 248.074 40.704C250.207 43.0933 251.274 46.5493 251.274 51.072C251.274 53.888 250.847 57.1733 249.994 60.928C249.141 64.6827 247.818 68.992 246.026 73.856C244.319 78.464 242.997 82.0907 242.058 84.736C241.119 87.3813 240.437 89.4293 240.01 90.88C239.583 92.2453 239.285 93.184 239.114 93.696C239.029 94.208 238.986 94.6347 238.986 94.976C238.986 96.9387 239.797 97.92 241.418 97.92C243.125 97.92 245.215 96.9387 247.69 94.976C250.25 92.928 252.81 90.112 255.37 86.528L258.954 89.216C257.589 91.6907 255.882 94.0373 253.834 96.256C251.871 98.4747 249.695 100.437 247.306 102.144C245.002 103.765 242.613 105.088 240.138 106.112C237.749 107.051 235.487 107.52 233.354 107.52C231.05 107.52 229.386 106.88 228.362 105.6C227.338 104.32 226.826 102.272 226.826 99.456C226.826 98.0053 226.954 96.4693 227.21 94.848C227.466 93.2267 227.893 91.2213 228.49 88.832C229.173 86.3573 230.069 83.3707 231.178 79.872C232.373 76.288 233.909 71.808 235.786 66.432Z" fill="#84A3C4"/>
<path d="M275.366 64C276.561 60.672 277.414 57.984 277.926 55.936C278.438 53.888 278.694 52.2667 278.694 51.072C278.694 49.8773 278.481 49.1093 278.054 48.768C277.713 48.3413 277.329 48.128 276.902 48.128C275.963 48.128 274.939 48.5973 273.83 49.536C272.721 50.3893 271.611 51.4133 270.502 52.608C269.393 53.8027 268.411 54.9973 267.558 56.192C266.705 57.3867 266.107 58.3253 265.766 59.008L262.054 56.704C263.078 54.8267 264.486 52.736 266.278 50.432C268.155 48.128 270.246 45.9947 272.55 44.032C274.854 42.0693 277.243 40.448 279.718 39.168C282.193 37.8027 284.539 37.12 286.758 37.12C288.891 37.12 290.47 37.76 291.494 39.04C292.603 40.2347 293.158 42.4533 293.158 45.696C293.158 48.1707 292.39 51.4987 290.854 55.68C289.403 59.8613 287.483 65.2373 285.094 71.808L280.358 84.736C280.187 85.1627 279.931 85.8453 279.59 86.784C279.334 87.6373 279.035 88.576 278.694 89.6C278.438 90.5387 278.182 91.4773 277.926 92.416C277.755 93.3547 277.67 94.1227 277.67 94.72C277.67 95.488 277.883 96.1707 278.31 96.768C278.737 97.3653 279.419 97.664 280.358 97.664C281.638 97.664 282.961 97.152 284.326 96.128C285.691 95.0187 287.014 93.7387 288.294 92.288C289.574 90.8373 290.726 89.3867 291.75 87.936C292.774 86.4 293.542 85.2053 294.054 84.352L297.894 86.528C296.87 88.576 295.462 90.8373 293.67 93.312C291.963 95.7867 290.001 98.0907 287.782 100.224C285.563 102.272 283.131 104.021 280.486 105.472C277.841 106.837 275.11 107.52 272.294 107.52C269.819 107.52 267.942 106.88 266.662 105.6C265.467 104.32 264.87 102.187 264.87 99.2C264.87 96.7253 265.254 94.08 266.022 91.264C266.875 88.3627 268.07 84.736 269.606 80.384L275.366 64ZM294.182 16.128C292.049 16.128 290.171 15.4027 288.55 13.952C287.014 12.5013 286.246 10.624 286.246 8.32C286.246 6.016 287.014 4.05333 288.55 2.432C290.086 0.810666 291.963 0 294.182 0C296.571 0 298.534 0.810666 300.07 2.432C301.606 4.05333 302.374 5.97333 302.374 8.192C302.374 10.4107 301.563 12.288 299.942 13.824C298.321 15.36 296.401 16.128 294.182 16.128Z" fill="#84A3C4"/>
<path d="M321.414 107.52C318.513 107.52 315.782 106.965 313.222 105.856C310.747 104.661 308.571 102.955 306.694 100.736C304.817 98.5173 303.323 95.8293 302.214 92.672C301.105 89.4293 300.55 85.8027 300.55 81.792C300.55 76.2453 301.574 70.784 303.622 65.408C305.755 60.032 308.529 55.2533 311.942 51.072C315.355 46.8907 319.238 43.52 323.59 40.96C328.027 38.4 332.593 37.12 337.286 37.12C340.358 37.12 343.174 37.7173 345.734 38.912C348.379 40.0213 350.598 41.6853 352.39 43.904C354.267 46.0373 355.718 48.64 356.742 51.712C357.851 54.6987 358.406 58.0267 358.406 61.696C358.406 67.072 357.339 72.4907 355.206 77.952C353.073 83.4133 350.257 88.32 346.758 92.672C343.345 97.024 339.419 100.608 334.982 103.424C330.545 106.155 326.022 107.52 321.414 107.52ZM322.182 101.12C325.083 101.12 327.942 99.6267 330.758 96.64C333.659 93.6533 336.219 89.8987 338.438 85.376C340.742 80.768 342.577 75.776 343.942 70.4C345.393 65.024 346.118 59.904 346.118 55.04C346.118 50.5173 345.307 47.4027 343.686 45.696C342.15 43.9893 340.017 43.136 337.286 43.136C335.409 43.136 333.489 43.8187 331.526 45.184C329.649 46.464 327.857 48.256 326.15 50.56C324.443 52.864 322.822 55.5093 321.286 58.496C319.835 61.4827 318.555 64.64 317.446 67.968C316.337 71.296 315.483 74.7093 314.886 78.208C314.289 81.6213 313.99 84.9067 313.99 88.064C313.99 92.8427 314.758 96.2133 316.294 98.176C317.83 100.139 319.793 101.12 322.182 101.12Z" fill="#84A3C4"/>
<path d="M413.758 43.776C411.71 43.776 409.363 44.8427 406.718 46.976C404.158 49.024 401.513 51.7973 398.782 55.296C396.137 58.7093 393.577 62.6347 391.102 67.072C388.627 71.5093 386.537 76.032 384.83 80.64L375.358 106.24H364.094L373.566 76.928C375.102 72.2347 376.382 68.224 377.406 64.896C378.43 61.568 379.241 58.7947 379.838 56.576C380.521 54.272 380.99 52.4373 381.246 51.072C381.502 49.6213 381.63 48.4693 381.63 47.616C381.63 45.312 380.905 44.16 379.454 44.16C378.515 44.16 377.406 44.7573 376.126 45.952C374.846 47.1467 373.523 48.7253 372.158 50.688C370.878 52.5653 369.641 54.7413 368.446 57.216C367.251 59.6907 366.227 62.208 365.374 64.768L361.534 62.848C364.521 54.0587 367.849 47.5733 371.518 43.392C375.273 39.2107 379.539 37.12 384.318 37.12C387.049 37.12 388.969 37.888 390.078 39.424C391.273 40.96 391.87 43.5627 391.87 47.232C391.87 51.584 391.145 55.4667 389.694 58.88L390.078 59.264C394.43 51.584 398.825 45.9947 403.262 42.496C407.785 38.912 412.691 37.12 417.982 37.12C421.737 37.12 424.595 38.016 426.558 39.808C428.521 41.6 429.502 44.16 429.502 47.488C429.502 48.5973 429.374 49.8347 429.118 51.2C428.947 52.5653 428.606 54.2293 428.094 56.192C427.582 58.0693 426.857 60.3307 425.918 62.976C425.065 65.6213 423.998 68.864 422.718 72.704C420.755 78.5067 419.134 83.3707 417.854 87.296C416.574 91.2213 415.934 93.9947 415.934 95.616C415.934 96.896 416.361 97.536 417.214 97.536C418.409 97.536 420.158 96.5547 422.462 94.592C424.766 92.6293 427.881 89.472 431.806 85.12L435.134 86.912C433.769 89.472 431.977 91.9893 429.758 94.464C427.625 96.8533 425.363 99.0293 422.974 100.992C420.67 102.955 418.366 104.533 416.062 105.728C413.758 106.923 411.753 107.52 410.046 107.52C407.913 107.52 406.206 106.581 404.926 104.704C403.731 102.827 403.134 100.352 403.134 97.28C403.134 96.0853 403.219 94.8907 403.39 93.696C403.646 92.416 404.115 90.624 404.798 88.32C405.481 86.016 406.462 82.944 407.742 79.104C409.107 75.1787 410.942 70.016 413.246 63.616C414.014 61.3973 414.654 59.52 415.166 57.984C415.678 56.448 416.062 55.1253 416.318 54.016C416.659 52.8213 416.873 51.7973 416.958 50.944C417.129 50.0907 417.214 49.28 417.214 48.512C417.214 45.3547 416.062 43.776 413.758 43.776Z" fill="#84A3C4"/>
<path d="M440.293 74.496L443.237 63.872H482.789L479.845 74.496H440.293Z" fill="#84A3C4"/>
<path d="M74.7655 196.053C74.7655 204.094 71.6613 210.49 65.453 215.24C59.2447 219.99 51.203 222.365 41.328 222.365C38.2447 222.365 35.3072 222.157 32.5155 221.74C29.7655 221.365 27.4947 220.907 25.703 220.365C23.953 219.782 22.4322 219.219 21.1405 218.678C19.8488 218.094 18.8488 217.615 18.1405 217.24C17.4322 216.823 17.0155 216.615 16.8905 216.615C16.4738 216.615 15.1613 218.115 12.953 221.115H11.7655L11.3905 195.615H12.703C14.2447 200.115 16.5155 204.407 19.5155 208.49C22.5572 212.532 25.5572 215.323 28.5155 216.865C32.8905 219.198 37.1197 220.365 41.203 220.365C47.5363 220.365 52.6613 218.615 56.578 215.115C60.4947 211.573 62.453 206.907 62.453 201.115C62.453 196.698 61.1822 193.219 58.6405 190.678C56.0988 188.136 52.4738 185.99 47.7655 184.24C45.2238 183.282 42.1197 182.198 38.453 180.99C34.828 179.782 31.6613 178.657 28.953 177.615C24.2447 175.782 20.2447 172.782 16.953 168.615C13.6613 164.407 12.0155 159.678 12.0155 154.428C12.0155 150.011 12.8488 146.073 14.5155 142.615C16.1822 139.115 18.453 136.303 21.328 134.178C24.203 132.053 27.453 130.448 31.078 129.365C34.703 128.24 38.5988 127.678 42.7655 127.678C45.6405 127.678 48.328 127.886 50.828 128.303C53.3697 128.719 55.4322 129.24 57.0155 129.865C58.6405 130.448 60.0155 131.053 61.1405 131.678C62.3072 132.261 63.1822 132.761 63.7655 133.178C64.3905 133.594 64.7238 133.803 64.7655 133.803C65.0155 133.803 65.5572 133.303 66.3905 132.303C67.2238 131.261 67.953 130.219 68.578 129.178H70.0155V152.865H68.578C67.453 149.823 66.0988 147.011 64.5155 144.428C62.9738 141.803 61.1405 139.365 59.0155 137.115C56.9322 134.823 54.4738 133.032 51.6405 131.74C48.8488 130.407 45.8488 129.74 42.6405 129.74C37.0572 129.74 32.453 131.344 28.828 134.553C25.2447 137.719 23.453 142.115 23.453 147.74C23.453 155.74 28.3488 161.553 38.1405 165.178C40.6822 166.178 43.8905 167.323 47.7655 168.615C51.6822 169.865 54.578 170.844 56.453 171.553C62.328 173.719 66.8488 176.865 70.0155 180.99C73.1822 185.115 74.7655 190.136 74.7655 196.053Z" fill="#84A3C4"/>
<path d="M140.27 219.99V221.24H98.708V219.99C101.5 219.698 103.833 219.198 105.708 218.49C107.583 217.74 109.375 216.386 111.083 214.428C111.791 213.678 112.25 212.24 112.458 210.115C112.666 207.99 112.812 205.282 112.896 201.99C112.896 201.782 112.896 201.636 112.896 201.553C112.896 201.469 112.896 201.344 112.896 201.178C112.896 201.011 112.896 200.865 112.896 200.74C113.062 194.407 113.146 185.761 113.146 174.803V132.428C106.646 132.428 101.229 132.469 96.8955 132.553C93.6872 132.636 91.0205 133.032 88.8955 133.74C86.8122 134.448 84.8747 135.636 83.083 137.303C81.6247 138.678 79.8538 140.928 77.7705 144.053C75.6872 147.178 73.9997 150.198 72.708 153.115L71.5205 152.74L75.6455 128.428C79.9788 129.386 84.208 129.907 88.333 129.99C96.958 130.157 107.625 130.24 120.333 130.24C124.416 130.24 135.083 130.157 152.333 129.99C154.083 129.948 155.77 129.803 157.395 129.553C159.02 129.303 160.229 129.073 161.02 128.865C161.854 128.657 163.166 128.303 164.958 127.803L169.083 152.74L167.958 153.115C166.666 150.198 164.937 147.115 162.77 143.865C160.604 140.573 158.791 138.24 157.333 136.865C155.625 135.282 153.729 134.198 151.645 133.615C149.562 132.99 146.833 132.636 143.458 132.553C139.125 132.469 133.708 132.428 127.208 132.428C127.125 138.219 127.083 161.636 127.083 202.678C127.083 209.261 127.562 213.24 128.52 214.615C129.312 215.74 130.479 216.698 132.02 217.49C133.562 218.282 134.895 218.823 136.02 219.115C137.187 219.407 138.604 219.698 140.27 219.99Z" fill="#84A3C4"/>
<path d="M206.025 183.24C202.942 175.073 197.775 161.886 190.525 143.678C182.525 162.803 177.067 175.99 174.15 183.24H206.025ZM244.65 221.24H207.275V219.99C207.9 219.907 208.546 219.803 209.213 219.678C209.921 219.511 210.88 219.24 212.088 218.865C213.338 218.448 214.338 217.823 215.088 216.99C215.88 216.157 216.275 215.178 216.275 214.053C216.275 211.469 213.192 202.094 207.025 185.928H172.963C169.088 195.594 166.671 201.657 165.713 204.115C163.921 208.698 163.025 211.928 163.025 213.803C163.025 217.136 166.567 219.198 173.65 219.99V221.24H146.088V219.803C148.046 219.594 149.88 219.053 151.588 218.178C153.338 217.303 154.421 216.615 154.838 216.115C156.755 214.198 159.4 209.511 162.775 202.053C167.775 191.053 176.546 170.615 189.088 140.74L187.838 137.928C192.338 135.969 196.088 132.428 199.088 127.303H200.15L227.025 199.24C228.275 202.615 230.067 206.782 232.4 211.74C232.692 212.323 233.088 212.969 233.588 213.678C234.088 214.344 234.817 215.178 235.775 216.178C236.775 217.136 238.046 217.948 239.588 218.615C241.171 219.282 242.859 219.636 244.65 219.678V221.24Z" fill="#84A3C4"/>
<path d="M301.78 152.865C301.78 148.615 300.697 144.803 298.53 141.428C296.364 138.053 293.26 135.428 289.218 133.553C285.385 131.761 280.864 130.865 275.655 130.865C273.28 130.865 270.968 130.99 268.718 131.24C268.385 133.157 268.135 136.448 267.968 141.115C267.801 146.407 267.718 158.094 267.718 176.178C275.301 176.178 281.489 175.407 286.28 173.865C291.53 172.24 295.426 169.553 297.968 165.803C300.51 162.053 301.78 157.74 301.78 152.865ZM337.468 221.24H311.218C309.76 219.698 308.822 218.678 308.405 218.178C308.03 217.678 306.51 215.448 303.843 211.49C303.093 210.407 301.718 208.365 299.718 205.365C297.76 202.323 296.364 200.219 295.53 199.053C294.739 197.886 293.489 196.178 291.78 193.928C290.072 191.678 288.239 189.428 286.28 187.178C281.864 182.094 277.905 179.198 274.405 178.49C273.114 178.24 270.885 178.032 267.718 177.865C267.718 190.657 267.76 198.928 267.843 202.678C267.843 203.053 267.843 203.719 267.843 204.678C267.885 205.594 267.905 206.219 267.905 206.553C267.947 206.886 267.968 207.428 267.968 208.178C268.01 208.928 268.051 209.469 268.093 209.803C268.135 210.136 268.197 210.594 268.28 211.178C268.364 211.719 268.447 212.157 268.53 212.49C268.655 212.823 268.801 213.178 268.968 213.553C269.135 213.928 269.322 214.282 269.53 214.615C270.405 215.948 271.864 217.157 273.905 218.24C275.947 219.282 278.53 219.865 281.655 219.99V221.24H240.718V219.99C246.01 219.198 249.593 217.657 251.468 215.365C252.01 214.698 252.426 213.49 252.718 211.74C253.051 209.99 253.26 208.448 253.343 207.115C253.426 205.782 253.489 203.844 253.531 201.303C253.697 194.969 253.781 186.136 253.781 174.803V149.803C253.781 141.011 253.051 135.844 251.593 134.303C250.426 133.053 249.093 132.178 247.593 131.678C246.135 131.178 244.093 130.74 241.468 130.365V129.053C241.843 129.053 246.864 129.032 256.53 128.99C266.239 128.948 272.905 128.928 276.53 128.928C283.405 128.928 288.864 129.157 292.905 129.615C296.947 130.073 300.635 131.178 303.968 132.928C312.301 137.344 316.468 144.261 316.468 153.678C316.468 159.553 314.51 164.448 310.593 168.365C306.676 172.282 301.593 175.219 295.343 177.178V177.615C297.885 178.99 300.635 181.719 303.593 185.803C304.926 187.678 307.239 191.032 310.53 195.865C313.864 200.698 316.28 204.157 317.78 206.24C320.905 210.698 323.947 213.969 326.905 216.053C329.905 218.094 333.426 219.407 337.468 219.99V221.24Z" fill="#84A3C4"/>
<path d="M392.41 219.99V221.24H350.848V219.99C353.64 219.698 355.973 219.198 357.848 218.49C359.723 217.74 361.515 216.386 363.223 214.428C363.931 213.678 364.39 212.24 364.598 210.115C364.806 207.99 364.952 205.282 365.035 201.99C365.035 201.782 365.035 201.636 365.035 201.553C365.035 201.469 365.035 201.344 365.035 201.178C365.035 201.011 365.035 200.865 365.035 200.74C365.202 194.407 365.285 185.761 365.285 174.803V132.428C358.785 132.428 353.369 132.469 349.035 132.553C345.827 132.636 343.16 133.032 341.035 133.74C338.952 134.448 337.015 135.636 335.223 137.303C333.765 138.678 331.994 140.928 329.91 144.053C327.827 147.178 326.14 150.198 324.848 153.115L323.66 152.74L327.785 128.428C332.119 129.386 336.348 129.907 340.473 129.99C349.098 130.157 359.765 130.24 372.473 130.24C376.556 130.24 387.223 130.157 404.473 129.99C406.223 129.948 407.91 129.803 409.535 129.553C411.16 129.303 412.369 129.073 413.16 128.865C413.994 128.657 415.306 128.303 417.098 127.803L421.223 152.74L420.098 153.115C418.806 150.198 417.077 147.115 414.91 143.865C412.744 140.573 410.931 138.24 409.473 136.865C407.765 135.282 405.869 134.198 403.785 133.615C401.702 132.99 398.973 132.636 395.598 132.553C391.265 132.469 385.848 132.428 379.348 132.428C379.265 138.219 379.223 161.636 379.223 202.678C379.223 209.261 379.702 213.24 380.66 214.615C381.452 215.74 382.619 216.698 384.16 217.49C385.702 218.282 387.035 218.823 388.16 219.115C389.327 219.407 390.744 219.698 392.41 219.99Z" fill="#84A3C4"/>
</svg>
